<?xml version="1.0" standalone="no"?>
<!DOCTYPE svg PUBLIC "-//W3C//DTD SVG 1.1//EN" "http://www.w3.org/Graphics/SVG/1.1/DTD/svg11.dtd">

<svg width="4529" height="2760" 
  xmlns="http://www.w3.org/2000/svg"
  xmlns:xlink="http://www.w3.org/1999/xlink">

<style type="text/css">
<![CDATA[

]]>
</style>

<circle cx="3838" cy="680" r="4" fill="#ef161e"/>
<circle cx="3944" cy="790" r="4" fill="#ef161e"/>
<circle cx="3647" cy="865" r="4" fill="#ef161e"/>
<circle cx="3298" cy="940" r="4" fill="#ef161e"/>
<circle cx="3169" cy="1027" r="4" fill="#ef161e"/>
<circle cx="3058" cy="1075" r="4" fill="#ef161e"/>
<circle cx="2983" cy="1138" r="4" fill="#ef161e"/>
<circle cx="2884" cy="1171" r="4" fill="#ef161e"/>
<circle cx="2768" cy="1231" r="4" fill="#ef161e"/>
<circle cx="2662" cy="1251" r="4" fill="#ef161e"/>
<circle cx="2596" cy="1316" r="4" fill="#ef161e"/>
<circle cx="2533" cy="1375" r="4" fill="#ef161e"/>
<circle cx="2439" cy="1472" r="4" fill="#ef161e"/>
<circle cx="2282" cy="1561" r="4" fill="#ef161e"/>
<circle cx="2135" cy="1595" r="4" fill="#ef161e"/>
<circle cx="2088" cy="1725" r="4" fill="#ef161e"/>
<circle cx="1829" cy="1902" r="4" fill="#ef161e"/>
<circle cx="1556" cy="2057" r="4" fill="#ef161e"/>
<circle cx="1329" cy="2191" r="4" fill="#ef161e"/>
<circle cx="1221" cy="2369" r="4" fill="#ef161e"/>
<circle cx="915" cy="2498" r="4" fill="#ef161e"/>
<circle cx="738" cy="2609" r="4" fill="#ef161e"/>
<circle cx="1311" cy="40" r="4" fill="#2dbe2c"/>
<circle cx="1260" cy="170" r="4" fill="#2dbe2c"/>
<circle cx="1257" cy="279" r="4" fill="#2dbe2c"/>
<circle cx="1363" cy="430" r="4" fill="#2dbe2c"/>
<circle cx="1476" cy="638" r="4" fill="#2dbe2c"/>
<circle cx="1649" cy="777" r="4" fill="#2dbe2c"/>
<circle cx="1825" cy="825" r="4" fill="#2dbe2c"/>
<circle cx="2076" cy="931" r="4" fill="#2dbe2c"/>
<circle cx="2331" cy="1061" r="4" fill="#2dbe2c"/>
<circle cx="2454" cy="1127" r="4" fill="#2dbe2c"/>
<circle cx="2561" cy="1181" r="4" fill="#2dbe2c"/>
<circle cx="2686" cy="1250" r="4" fill="#2dbe2c"/>
<circle cx="2791" cy="1413" r="4" fill="#2dbe2c"/>
<circle cx="2873" cy="1523" r="4" fill="#2dbe2c"/>
<circle cx="3072" cy="1754" r="4" fill="#2dbe2c"/>
<circle cx="3137" cy="1878" r="4" fill="#2dbe2c"/>
<circle cx="3134" cy="2043" r="4" fill="#2dbe2c"/>
<circle cx="2983" cy="2277" r="4" fill="#2dbe2c"/>
<circle cx="3060" cy="2470" r="4" fill="#2dbe2c"/>
<circle cx="3190" cy="2614" r="4" fill="#2dbe2c"/>
<circle cx="3445" cy="2696" r="4" fill="#2dbe2c"/>
<circle cx="3682" cy="2720" r="4" fill="#2dbe2c"/>
<circle cx="3940" cy="2691" r="4" fill="#2dbe2c"/>
<circle cx="4156" cy="2502" r="4" fill="#2dbe2c"/>
<circle cx="40" cy="265" r="4" fill="#0078be"/>
<circle cx="118" cy="281" r="4" fill="#0078be"/>
<circle cx="318" cy="474" r="4" fill="#0078be"/>
<circle cx="348" cy="576" r="4" fill="#0078be"/>
<circle cx="527" cy="790" r="4" fill="#0078be"/>
<circle cx="502" cy="909" r="4" fill="#0078be"/>
<circle cx="577" cy="1261" r="4" fill="#0078be"/>
<circle cx="664" cy="1420" r="4" fill="#0078be"/>
<circle cx="955" cy="1521" r="4" fill="#0078be"/>
<circle cx="1202" cy="1532" r="4" fill="#0078be"/>
<circle cx="1678" cy="1466" r="4" fill="#0078be"/>
<circle cx="2141" cy="1386" r="4" fill="#0078be"/>
<circle cx="2319" cy="1354" r="4" fill="#0078be"/>
<circle cx="2557" cy="1306" r="4" fill="#0078be"/>
<circle cx="2712" cy="1262" r="4" fill="#0078be"/>
<circle cx="3073" cy="1252" r="4" fill="#0078be"/>
<circle cx="3302" cy="1098" r="4" fill="#0078be"/>
<circle cx="3533" cy="1011" r="4" fill="#0078be"/>
<circle cx="3704" cy="995" r="4" fill="#0078be"/>
<circle cx="4002" cy="942" r="4" fill="#0078be"/>
<circle cx="4240" cy="934" r="4" fill="#0078be"/>
<circle cx="4310" cy="950" r="4" fill="#0078be"/>
<circle cx="4489" cy="880" r="4" fill="#0078be"/>
<circle cx="4482" cy="734" r="4" fill="#0078be"/>
<polyline points="3647,865 3944,790 3838,680" stroke="#ef161e" fill="none"/>
<polyline points="3298,940 3647,865" stroke="#ef161e" fill="none"/>
<polyline points="3298,940 3169,1027 3058,1075 2983,1138 2884,1171 2768,1231 2662,1251 2596,1316 2533,1375 2439,1472" stroke="#ef161e" fill="none"/>
<polyline points="2439,1472 2282,1561 2135,1595" stroke="#ef161e" fill="none"/>
<polyline points="2135,1595 2088,1725 1829,1902" stroke="#ef161e" fill="none"/>
<polyline points="1829,1902 1556,2057 1329,2191" stroke="#ef161e" fill="none"/>
<polyline points="1329,2191 1221,2369" stroke="#ef161e" fill="none"/>
<polyline points="1221,2369 915,2498" stroke="#ef161e" fill="none"/>
<polyline points="915,2498 738,2609" stroke="#ef161e" fill="none"/>
<polyline points="1311,40 1260,170 1257,279" stroke="#2dbe2c" fill="none"/>
<polyline points="1257,279 1363,430 1476,638 1649,777" stroke="#2dbe2c" fill="none"/>
<polyline points="1649,777 1825,825 2076,931 2331,1061 2454,1127 2561,1181 2686,1250" stroke="#2dbe2c" fill="none"/>
<polyline points="2686,1250 2791,1413 2873,1523 3072,1754" stroke="#2dbe2c" fill="none"/>
<polyline points="3072,1754 3137,1878 3134,2043 2983,2277" stroke="#2dbe2c" fill="none"/>
<polyline points="2983,2277 3060,2470 3190,2614 3445,2696" stroke="#2dbe2c" fill="none"/>
<polyline points="3445,2696 3682,2720 3940,2691" stroke="#2dbe2c" fill="none"/>
<polyline points="3940,2691 4156,2502" stroke="#2dbe2c" fill="none"/>
<polyline points="40,265 118,281" stroke="#0078be" fill="none"/>
<polyline points="118,281 318,474 348,576 527,790" stroke="#0078be" fill="none"/>
<polyline points="527,790 502,909 577,1261 664,1420 955,1521 1202,1532 1678,1466" stroke="#0078be" fill="none"/>
<polyline points="1678,1466 2141,1386" stroke="#0078be" fill="none"/>
<polyline points="2141,1386 2319,1354 2557,1306 2712,1262" stroke="#0078be" fill="none"/>
<polyline points="2712,1262 3073,1252" stroke="#0078be" fill="none"/>
<polyline points="3073,1252 3302,1098 3533,1011 3704,995 4002,942" stroke="#0078be" fill="none"/>
<polyline points="4002,942 4240,934" stroke="#0078be" fill="none"/>
<polyline points="4002,942 4310,950 4489,880" stroke="#0078be" fill="none"/>
<polyline points="4489,880 4482,734" stroke="#0078be" fill="none"/>

</svg>